<?xml version="1.0" encoding="iso-8859-1"?>
<!-- Uploaded to: SVG Repo, www.svgrepo.com, Generator: SVG Repo Mixer Tools -->
<svg height="800px" width="800px" version="1.1" id="Capa_1" xmlns="http://www.w3.org/2000/svg" xmlns:xlink="http://www.w3.org/1999/xlink" 
	 viewBox="0 0 470 470" xml:space="preserve">
<g>
	<path style="fill:#E8B9AC;" d="M25,355v92.5c0,4.136,3.364,7.5,7.5,7.5s7.5-3.364,7.5-7.5V355H25z"/>
	<path style="fill:#E8B9AC;" d="M40,30v-7.5c0-4.136-3.364-7.5-7.5-7.5S25,18.364,25,22.5V30H40z"/>
	<path style="fill:#E8B9AC;" d="M445,30v-7.5c0-4.136-3.364-7.5-7.5-7.5s-7.5,3.364-7.5,7.5V30H445z"/>
	<path style="fill:#E8B9AC;" d="M430,355v92.5c0,4.136,3.364,7.5,7.5,7.5s7.5-3.364,7.5-7.5V355H430z"/>
	<path style="fill:#F3F0E0;" d="M235,115c-20.518,0-37.21,16.692-37.21,37.209s16.692,37.209,37.21,37.209
		c20.517,0,37.209-16.692,37.209-37.209S255.517,115,235,115z"/>
	<path style="fill:#F3F0E0;" d="M77.5,45H15v295h440V45H107.5c-4.143,0-7.5-3.358-7.5-7.5H85C85,41.642,81.643,45,77.5,45z
		 M55,317.5c0,4.142-3.357,7.5-7.5,7.5s-7.5-3.358-7.5-7.5v-250c0-4.142,3.357-7.5,7.5-7.5s7.5,3.358,7.5,7.5V317.5z M415,67.5
		c0-4.142,3.357-7.5,7.5-7.5s7.5,3.358,7.5,7.5v250c0,4.142-3.357,7.5-7.5,7.5s-7.5-3.358-7.5-7.5V67.5z M235,70
		c45.33,0,82.209,36.879,82.209,82.209c0,13.263-3.239,26.451-9.369,38.136c-1.924,3.668-6.455,5.083-10.125,3.159
		c-0.116-0.061-0.223-0.132-0.335-0.198c-2.802,4.244-6.022,8.186-9.607,11.765c0.083,0.092,0.17,0.179,0.25,0.276
		c2.62,3.208,2.144,7.933-1.064,10.553c-8.675,7.084-18.76,12.342-29.458,15.393v13.416h17.89c4.143,0,7.5,3.358,7.5,7.5v30
		c0,4.142-3.357,7.5-7.5,7.5H257.5V307.5c0,4.142-3.357,7.5-7.5,7.5h-30c-4.143,0-7.5-3.358-7.5-7.5v-17.791h-17.889
		c-4.143,0-7.5-3.358-7.5-7.5v-30c0-4.142,3.357-7.5,7.5-7.5H212.5v-13.411c-34.943-9.928-59.709-42.251-59.709-79.089
		C152.791,106.879,189.67,70,235,70z"/>
	<path style="fill:#D7B0CD;" d="M294.557,183.379c5.077-9.682,7.652-20.168,7.652-31.169C302.209,115.15,272.06,85,235,85
		s-67.209,30.15-67.209,67.209c0,31.814,22.587,59.51,53.707,65.853c3.493,0.712,6.002,3.784,6.002,7.349v26.798
		c0,4.142-3.357,7.5-7.5,7.5h-17.889v15H220c4.143,0,7.5,3.358,7.5,7.5V300h15v-17.791c0-4.142,3.357-7.5,7.5-7.5h17.89v-15H250
		c-4.143,0-7.5-3.358-7.5-7.5v-26.798c0-3.565,2.509-6.637,6.002-7.349c10.545-2.149,20.562-6.914,28.968-13.779
		c3.112-2.54,7.642-2.161,10.303,0.789c3.585-3.579,6.805-7.521,9.607-11.765C293.967,191.286,292.694,186.931,294.557,183.379z
		 M235,204.419c-28.789,0-52.21-23.421-52.21-52.209S206.211,100,235,100c28.788,0,52.209,23.421,52.209,52.209
		S263.788,204.419,235,204.419z"/>
	<path style="fill:#3E2C3A;" d="M212.5,231.298v13.411h-17.889c-4.143,0-7.5,3.358-7.5,7.5v30c0,4.142,3.357,7.5,7.5,7.5H212.5
		V307.5c0,4.142,3.357,7.5,7.5,7.5h30c4.143,0,7.5-3.358,7.5-7.5v-17.791h17.89c4.143,0,7.5-3.358,7.5-7.5v-30
		c0-4.142-3.357-7.5-7.5-7.5H257.5v-13.416c10.698-3.051,20.783-8.309,29.458-15.393c3.208-2.62,3.685-7.345,1.064-10.553
		c-0.08-0.097-0.167-0.184-0.25-0.276c-2.661-2.949-7.191-3.329-10.303-0.789c-8.406,6.865-18.423,11.63-28.968,13.779
		c-3.493,0.712-6.002,3.784-6.002,7.349v26.798c0,4.142,3.357,7.5,7.5,7.5h17.89v15H250c-4.143,0-7.5,3.358-7.5,7.5V300h-15v-17.791
		c0-4.142-3.357-7.5-7.5-7.5h-17.889v-15H220c4.143,0,7.5-3.358,7.5-7.5v-26.798c0-3.565-2.509-6.637-6.002-7.349
		c-31.12-6.343-53.707-34.038-53.707-65.853C167.791,115.15,197.94,85,235,85s67.209,30.15,67.209,67.209
		c0,11.001-2.575,21.488-7.652,31.169c-1.863,3.552-0.589,7.907,2.823,9.927c0.112,0.066,0.219,0.137,0.335,0.198
		c3.67,1.924,8.201,0.509,10.125-3.159c6.13-11.686,9.369-24.873,9.369-38.136C317.209,106.879,280.33,70,235,70
		s-82.209,36.879-82.209,82.209C152.791,189.047,177.557,221.371,212.5,231.298z"/>
	<path style="fill:#3E2C3A;" d="M235,100c-28.789,0-52.21,23.421-52.21,52.209s23.421,52.209,52.21,52.209
		c28.788,0,52.209-23.421,52.209-52.209S263.788,100,235,100z M235,189.419c-20.518,0-37.21-16.692-37.21-37.209
		S214.482,115,235,115c20.517,0,37.209,16.692,37.209,37.209S255.517,189.419,235,189.419z"/>
	<path style="fill:#3E2C3A;" d="M462.5,30H460v-7.5C460,10.093,449.906,0,437.5,0S415,10.093,415,22.5V30H107.5
		c-4.143,0-7.5,3.358-7.5,7.5s3.357,7.5,7.5,7.5H455v295H15V45h62.5c4.143,0,7.5-3.358,7.5-7.5S81.643,30,77.5,30H55v-7.5
		C55,10.093,44.906,0,32.5,0S10,10.093,10,22.5V30H7.5C3.357,30,0,33.358,0,37.5v310c0,4.142,3.357,7.5,7.5,7.5H10v92.5
		c0,12.407,10.094,22.5,22.5,22.5S55,459.907,55,447.5V355h360v92.5c0,12.407,10.094,22.5,22.5,22.5s22.5-10.093,22.5-22.5V355h2.5
		c4.143,0,7.5-3.358,7.5-7.5v-310C470,33.358,466.643,30,462.5,30z M437.5,15c4.136,0,7.5,3.364,7.5,7.5V30h-15v-7.5
		C430,18.364,433.364,15,437.5,15z M437.5,455c-4.136,0-7.5-3.364-7.5-7.5V355h15v92.5C445,451.636,441.636,455,437.5,455z
		 M32.5,455c-4.136,0-7.5-3.364-7.5-7.5V355h15v92.5C40,451.636,36.636,455,32.5,455z M32.5,15c4.136,0,7.5,3.364,7.5,7.5V30H25
		v-7.5C25,18.364,28.364,15,32.5,15z"/>
	<path style="fill:#3E2C3A;" d="M47.5,60c-4.143,0-7.5,3.358-7.5,7.5v250c0,4.142,3.357,7.5,7.5,7.5s7.5-3.358,7.5-7.5v-250
		C55,63.358,51.643,60,47.5,60z"/>
	<path style="fill:#3E2C3A;" d="M422.5,325c4.143,0,7.5-3.358,7.5-7.5v-250c0-4.142-3.357-7.5-7.5-7.5s-7.5,3.358-7.5,7.5v250
		C415,321.642,418.357,325,422.5,325z"/>
</g>
</svg>