<svg version="1.1" id="Layer_1" xmlns="http://www.w3.org/2000/svg" xmlns:xlink="http://www.w3.org/1999/xlink" viewBox="0 0 463.3 463.3" xml:space="preserve" fill="#000000"><g id="SVGRepo_bgCarrier" stroke-width="0"></g><g id="SVGRepo_tracerCarrier" stroke-linecap="round" stroke-linejoin="round"></g><g id="SVGRepo_iconCarrier"> <g> <path style="fill:#CCCCCC;" d="M446.1,80.31H26.5c-9.5,0-17.2,7.7-17.2,17.2v26.15v254.13c0,9.5,7.7,17.2,17.2,17.2h419.6 c9.5,0,17.2-7.7,17.2-17.2V123.66v-26.15C463.299,88.01,455.6,80.31,446.1,80.31z"></path> <path style="fill:#E6E6E6;" d="M0,111.661v254.13c0,9.5,7.7,17.2,17.2,17.2h419.6c9.5,0,17.2-7.7,17.2-17.2v-254.13H0z M138.36,359.99H23v-151.89h115.36V359.99z M431,359.99H165.63v-151.89H431V359.99z M431,184.281H23V134.4h408V184.281z"></path> <path style="fill:#14dba0;" d="M454,85.511v26.15H0v-26.15c0-9.5,7.7-17.2,17.2-17.2h419.6C446.3,68.311,454,76.011,454,85.511z"></path> <rect x="165.63" y="208.101" style="fill:#ff7452;" width="265.37" height="151.89"></rect> <rect x="23" y="134.4" style="fill:#B3B3B3;" width="408" height="49.88"></rect> <rect x="23" y="208.101" style="fill:#B3B3B3;" width="115.36" height="151.89"></rect> <path style="fill:#F2F2F2;" d="M259.997,97.486h-188c-4.142,0-7.5-3.358-7.5-7.5s3.358-7.5,7.5-7.5h188c4.142,0,7.5,3.358,7.5,7.5 S264.139,97.486,259.997,97.486z"></path> <path style="fill:#4D4D4D;" d="M47,97.491c-1.98,0-3.91-0.81-5.31-2.2c-1.39-1.4-2.19-3.33-2.19-5.31c0-1.97,0.8-3.9,2.19-5.3 c1.4-1.39,3.33-2.19,5.31-2.19c1.97,0,3.9,0.8,5.3,2.19c1.4,1.4,2.2,3.33,2.2,5.3c0,1.98-0.8,3.91-2.2,5.31 C50.9,96.681,48.97,97.491,47,97.491z"></path> <path style="fill:#ff7452;" d="M23,97.481c-1.98,0-3.91-0.8-5.31-2.19c-1.39-1.4-2.19-3.33-2.19-5.31c0-1.97,0.8-3.9,2.19-5.3 c1.4-1.4,3.33-2.2,5.31-2.2c1.97,0,3.9,0.8,5.3,2.2c1.4,1.4,2.2,3.33,2.2,5.3c0,1.98-0.8,3.91-2.2,5.31 C26.9,96.681,24.97,97.481,23,97.481z"></path> <rect x="43.864" y="230.159" style="fill:#4D4D4D;" width="73.633" height="15"></rect> <rect x="43.864" y="260.159" style="fill:#4D4D4D;" width="73.633" height="15"></rect> <rect x="43.864" y="290.159" style="fill:#4D4D4D;" width="73.633" height="15"></rect> <rect x="43.864" y="320.159" style="fill:#4D4D4D;" width="73.633" height="15"></rect> <path style="opacity:0.23;fill:#F2F2F2;enable-background:new ;" d="M454,85.511v280.28c0,9.5-7.7,17.2-17.2,17.2H194.887 l163.75-314.68H436.8C446.3,68.311,454,76.011,454,85.511z"></path> <path style="opacity:0.23;fill:#F2F2F2;enable-background:new ;" d="M119.68,68.311l-22.56,43.35L85.29,134.4l-25.96,49.88 l-12.39,23.82l-23.94,46L0,298.3V85.511c0-9.5,7.7-17.2,17.2-17.2H119.68z"></path> </g> </g></svg>