<svg width="510" height="510" xmlns="http://www.w3.org/2000/svg" viewBox="0 0 510 510" width="18">

 <g>
  <title>Layer 1</title>
  <g>
   <g stroke-width="0" id="svg_4"/>
   <g stroke-linejoin="round" stroke-linecap="round" id="svg_3"/>
   <g id="svg_2">
    <g stroke="null" id="svg_5">
     <path stroke="null" fill="#E4EAF8" d="m477.33,340.7349l-444.66,0c-14.168,0 -25.653,-15.31707 -25.653,-34.21234l0,-114.04246c0,-18.89527 11.485,-34.21234 25.653,-34.21234l444.66,0c14.168,0 25.653,15.31707 25.653,34.21234l0,114.04246c0,18.89527 -11.485,34.21234 -25.653,34.21234z"/>
     <path stroke="null" fill="#00C3FF" d="m477.33,340.7349l-111.165,0l0,-182.46847l111.165,0c14.168,0 25.653,15.31707 25.653,34.21234l0,114.04246c0,18.89661 -11.485,34.21367 -25.653,34.21367z"/>
     <path stroke="null" d="m477.33,147.57449l-444.66,0c-18.566,0 -33.67,20.14491 -33.67,44.90428l0,114.04246c0,24.7607 15.105,44.90428 33.67,44.90428l444.66,0c18.566,0 33.67,-20.14491 33.67,-44.90428l0,-114.04246c0,-24.75937 -15.105,-44.90428 -33.67,-44.90428zm-462.297,158.94807l0,-114.04246c0,-12.96983 7.912,-23.52173 17.637,-23.52173l325.478,0l0,161.08592l-325.478,0c-9.725,-0.00133 -17.637,-10.5519 -17.637,-23.52173zm479.934,0c0,12.96983 -7.912,23.52173 -17.637,23.52173l-103.148,0l0,-161.08592l103.148,0c9.725,0 17.637,10.5519 17.637,23.52173l0,114.04246z"/>
     <path stroke="null" d="m41.221,193.19227c-4.427,0 -8.017,4.7865 -8.017,10.69194l0,91.23423c0,5.90411 3.589,10.69194 8.017,10.69194s8.017,-4.7865 8.017,-10.69194l0,-91.23423c0,-5.90544 -3.589,-10.69194 -8.017,-10.69194z"/>
    </g>
    <path id="svg_6" d="m470.17234,207.19227l-12.23684,-6.80789c-3.08739,-1.71597 -7.15557,-0.89007 -9.10094,1.84331l-4.82323,6.79519l23.40958,13.01444l4.82703,-6.79203c1.93799,-2.73664 1.01306,-6.34087 -2.07561,-8.05302l0,0zm-67.81844,60.53793l23.41086,13.01431l38.15582,-53.76508l-23.422,-13.01771l-38.14468,53.76848l0,0zm-3.576,16.53516l-0.51706,12.22412l12.21806,-5.72033l11.35405,-5.30641l-22.58521,-12.56326l-0.46984,11.36589l0,0l0,0z" fill="#000000"/>
   </g>
  </g>
 </g>
</svg>