<?xml version="1.0" encoding="utf-8"?>
<!-- Uploaded to: SVG Repo, www.svgrepo.com, Generator: SVG Repo Mixer Tools -->
<svg width="800px" height="800px" viewBox="0 0 1024 1024" class="icon"  version="1.1" xmlns="http://www.w3.org/2000/svg"><path d="M243.887 65.436L64 245.323V421.42l537.146 537.144L960 599.71 425.727 65.436z" fill="#FF3B30" /><path d="M425.727 114.156L935.641 624.07 960 599.709 425.727 65.437H243.888L64 245.324v48.72l179.888-179.888z" fill="#070707" /><path d="M217.884889 354.255445a97.44 97.44 0 1 0 137.798565-137.803375 97.44 97.44 0 1 0-137.798565 137.803375Z" fill="#EEEEEE" /><path d="M250.368 248.932c32.431-32.432 81.924-36.96 119.429-14.111-3.96-6.502-8.487-12.747-14.109-18.368-38.053-38.055-99.747-38.055-137.8 0-38.053 38.05-38.053 99.747 0 137.8 5.621 5.622 11.867 10.147 18.369 14.108-22.847-37.503-18.32-87 14.111-119.429z" fill="#070707" /></svg>