<?xml version="1.0" encoding="iso-8859-1"?>
<!-- Uploaded to: SVG Repo, www.svgrepo.com, Generator: SVG Repo Mixer Tools -->
<svg version="1.1" id="Layer_1" xmlns="http://www.w3.org/2000/svg" xmlns:xlink="http://www.w3.org/1999/xlink" 
	 viewBox="0 0 512 512" xml:space="preserve">
<g>
	<rect x="213.773" y="192.66" style="fill:#AFB6BB;" width="290.309" height="163.629"/>
	<rect x="7.918" y="192.66" style="fill:#AFB6BB;" width="142.515" height="163.629"/>
</g>
<polygon style="fill:#FFD311;" points="329.897,87.093 329.897,150.433 213.773,150.433 213.773,192.66 213.773,356.289 
	213.773,424.907 150.433,424.907 150.433,356.289 150.433,192.66 150.433,150.433 34.309,150.433 34.309,87.093 "/>
<polygon style="fill:#FAB91C;" points="34.309,87.093 34.309,150.433 150.433,150.433 150.433,192.66 150.433,356.289 
	150.433,424.907 182.103,424.907 182.103,87.093 "/>
<g>
	<rect x="213.773" y="266.557" style="fill:#9CA2A7;" width="290.309" height="89.732"/>
	<rect x="7.918" y="266.557" style="fill:#9CA2A7;" width="142.515" height="89.732"/>
</g>
<path d="M512,184.742H221.691v-26.392h116.124V79.175H26.392v79.175h116.124v26.392H0v179.464h142.515v68.619h79.175v-68.619H512
	V184.742z M15.835,348.371V200.577h126.68v147.794H15.835z M205.856,416.99h-47.505V142.515H42.227V95.01h279.753v47.505H205.856
	V416.99z M496.165,348.371H221.691V200.577h274.474V348.371z"/>
<g>
	<polygon style="fill:#FFFFFF;" points="472.412,232.247 472.412,216.412 409.072,216.412 409.072,232.247 432.825,232.247 
		432.825,316.701 409.072,316.701 409.072,332.536 472.412,332.536 472.412,316.701 448.66,316.701 448.66,232.247 	"/>
	<polygon style="fill:#FFFFFF;" points="52.784,298.227 36.948,298.227 36.948,221.691 76.536,221.691 76.536,237.526 
		52.784,237.526 	"/>
	<rect x="36.948" y="308.784" style="fill:#FFFFFF;" width="15.835" height="21.113"/>
	<rect x="55.423" y="110.845" style="fill:#FFFFFF;" width="153.072" height="15.835"/>
	<rect x="224.33" y="110.845" style="fill:#FFFFFF;" width="26.392" height="15.835"/>
</g>
</svg>